<svg version="1.1" viewBox="0.0 0.0 872.2939632545932 544.9186351706037" fill="none" stroke="none" stroke-linecap="square" stroke-miterlimit="10" xmlns:xlink="http://www.w3.org/1999/xlink" xmlns="http://www.w3.org/2000/svg"><clipPath id="p.0"><path d="m0 0l872.29395 0l0 544.91864l-872.29395 0l0 -544.91864z" clip-rule="nonzero"/></clipPath><g clip-path="url(#p.0)"><path fill="#000000" fill-opacity="0.0" d="m0 0l872.29395 0l0 544.91864l-872.29395 0z" fill-rule="evenodd"/><path fill="#ff4024" d="m0 -0.86351705l317.5118 0l0 547.9055l-317.5118 0z" fill-rule="evenodd"/><path fill="#ffffff" d="m66.05864 497.77014l2.65625 1.546875q-1.6875 2.65625 -1.75 5.390625l0 3.265625l-4.46875 0l0 -2.9375q0 -1.828125 1.015625 -3.90625q1.03125 -2.078125 2.546875 -3.359375zm7.0 0l2.65625 1.546875q-1.6875 2.65625 -1.75 5.390625l0 3.265625l-4.46875 0l0 -2.9375q0 -1.828125 1.015625 -3.90625q1.03125 -2.078125 2.546875 -3.359375zm29.308594 30.671875l-5.859375 0l-11.40625 -18.71875l0 18.71875l-5.859375 0l0 -28.4375l5.859375 0l11.421875 18.75l0 -18.75l5.84375 0l0 28.4375zm3.8671875 -10.765625q0 -3.140625 1.203125 -5.59375q1.21875 -2.46875 3.484375 -3.8125q2.28125 -1.359375 5.28125 -1.359375q4.28125 0 6.984375 2.625q2.703125 2.609375 3.015625 7.109375l0.046875 1.4375q0 4.875 -2.71875 7.8125q-2.71875 2.9375 -7.296875 2.9375q-4.5625 0 -7.28125 -2.921875q-2.71875 -2.9375 -2.71875 -7.984375l0 -0.25zm5.640625 0.40625q0 3.015625 1.125 4.609375q1.140625 1.59375 3.25 1.59375q2.046875 0 3.203125 -1.578125q1.15625 -1.578125 1.15625 -5.03125q0 -2.953125 -1.15625 -4.5625q-1.15625 -1.625 -3.25 -1.625q-2.0625 0 -3.203125 1.609375q-1.125 1.609375 -1.125 4.984375zm24.601562 -15.96875l0 5.1875l3.625 0l0 4.140625l-3.625 0l0 10.546875q0 1.171875 0.453125 1.6875q0.453125 0.5 1.71875 0.5q0.9375 0 1.65625 -0.125l0 4.265625q-1.65625 0.515625 -3.40625 0.515625q-5.9375 0 -6.0625 -6.0l0 -11.390625l-3.078125 0l0 -4.140625l3.078125 0l0 -5.1875l5.640625 0zm24.757812 -2.109375l7.296875 20.625l7.265625 -20.625l7.703125 0l0 28.4375l-5.890625 0l0 -7.78125l0.59375 -13.40625l-7.671875 21.1875l-4.03125 0l-7.65625 -21.171875l0.59375 13.390625l0 7.78125l-5.859375 0l0 -28.4375l7.65625 0zm32.960938 28.4375l-5.65625 0l0 -21.140625l5.65625 0l0 21.140625zm-6.0 -26.609375q0 -1.265625 0.84375 -2.078125q0.859375 -0.828125 2.328125 -0.828125q1.4375 0 2.296875 0.828125q0.859375 0.8125 0.859375 2.078125q0 1.296875 -0.875 2.125q-0.859375 0.8125 -2.28125 0.8125q-1.421875 0 -2.296875 -0.8125q-0.875 -0.828125 -0.875 -2.125zm15.839844 5.46875l0.1875 2.453125q2.265625 -2.84375 6.0625 -2.84375q3.359375 0 5.0 1.984375q1.640625 1.96875 1.6875 5.890625l0 13.65625l-5.640625 0l0 -13.515625q0 -1.796875 -0.78125 -2.609375q-0.78125 -0.8125 -2.609375 -0.8125q-2.375 0 -3.5625 2.03125l0 14.90625l-5.65625 0l0 -21.140625l5.3125 0zm26.933594 21.53125q-4.640625 0 -7.5625 -2.84375q-2.921875 -2.859375 -2.921875 -7.609375l0 -0.546875q0 -3.1875 1.234375 -5.6875q1.234375 -2.515625 3.484375 -3.875q2.25 -1.359375 5.140625 -1.359375q4.34375 0 6.828125 2.734375q2.5 2.734375 2.5 7.765625l0 2.296875l-13.46875 0q0.28125 2.078125 1.65625 3.328125q1.375 1.25 3.484375 1.25q3.265625 0 5.09375 -2.375l2.78125 3.109375q-1.265625 1.796875 -3.4375 2.8125q-2.171875 1.0 -4.8125 1.0zm-0.640625 -17.34375q-1.671875 0 -2.71875 1.140625q-1.046875 1.125 -1.34375 3.234375l7.859375 0l0 -0.453125q-0.046875 -1.875 -1.03125 -2.890625q-0.96875 -1.03125 -2.765625 -1.03125zm14.167969 -2.75l-2.65625 -1.546875q1.671875 -2.640625 1.734375 -5.453125l0 -3.296875l4.484375 0l0 3.03125q0 1.75 -0.984375 3.8125q-0.96875 2.046875 -2.578125 3.453125zm7.0 0l-2.65625 -1.546875q1.671875 -2.640625 1.734375 -5.453125l0 -3.296875l4.484375 0l0 3.03125q0 1.75 -0.984375 3.8125q-0.96875 2.046875 -2.578125 3.453125z" fill-rule="nonzero"/><path fill="#212148" d="m313.99738 -0.86351705l560.4094 0l0 547.9055l-560.4094 0z" fill-rule="evenodd"/><path fill="#ffffff" d="m538.6728 497.77014l2.65625 1.546875q-1.6875 2.65625 -1.75 5.390625l0 3.265625l-4.46875 0l0 -2.9375q0 -1.828125 1.015625 -3.90625q1.03125 -2.078125 2.546875 -3.359375zm7.0 0l2.65625 1.546875q-1.6875 2.65625 -1.75 5.390625l0 3.265625l-4.46875 0l0 -2.9375q0 -1.828125 1.015625 -3.90625q1.03125 -2.078125 2.546875 -3.359375zm13.839844 2.234375l7.296875 20.625l7.265625 -20.625l7.703125 0l0 28.4375l-5.890625 0l0 -7.78125l0.59375 -13.40625l-7.671875 21.1875l-4.03125 0l-7.65625 -21.171875l0.59375 13.390625l0 7.78125l-5.859375 0l0 -28.4375l7.65625 0zm32.960938 28.4375l-5.65625 0l0 -21.140625l5.65625 0l0 21.140625zm-6.0 -26.609375q0 -1.265625 0.84375 -2.078125q0.859375 -0.828125 2.328125 -0.828125q1.4375 0 2.296875 0.828125q0.859375 0.8125 0.859375 2.078125q0 1.296875 -0.875 2.125q-0.859375 0.8125 -2.28125 0.8125q-1.421875 0 -2.296875 -0.8125q-0.875 -0.828125 -0.875 -2.125zm15.839844 5.46875l0.1875 2.453125q2.265625 -2.84375 6.0625 -2.84375q3.359375 0 5.0 1.984375q1.640625 1.96875 1.6875 5.890625l0 13.65625l-5.640625 0l0 -13.515625q0 -1.796875 -0.78125 -2.609375q-0.78125 -0.8125 -2.609375 -0.8125q-2.375 0 -3.5625 2.03125l0 14.90625l-5.65625 0l0 -21.140625l5.3125 0zm26.933594 21.53125q-4.640625 0 -7.5625 -2.84375q-2.921875 -2.859375 -2.921875 -7.609375l0 -0.546875q0 -3.1875 1.234375 -5.6875q1.234375 -2.515625 3.484375 -3.875q2.25 -1.359375 5.140625 -1.359375q4.34375 0 6.828125 2.734375q2.5 2.734375 2.5 7.765625l0 2.296875l-13.46875 0q0.28125 2.078125 1.65625 3.328125q1.375 1.25 3.484375 1.25q3.265625 0 5.09375 -2.375l2.78125 3.109375q-1.265625 1.796875 -3.4375 2.8125q-2.171875 1.0 -4.8125 1.0zm-0.640625 -17.34375q-1.671875 0 -2.71875 1.140625q-1.046875 1.125 -1.34375 3.234375l7.859375 0l0 -0.453125q-0.046875 -1.875 -1.03125 -2.890625q-0.96875 -1.03125 -2.765625 -1.03125zm14.167969 -2.75l-2.65625 -1.546875q1.671875 -2.640625 1.734375 -5.453125l0 -3.296875l4.484375 0l0 3.03125q0 1.75 -0.984375 3.8125q-0.96875 2.046875 -2.578125 3.453125zm7.0 0l-2.65625 -1.546875q1.671875 -2.640625 1.734375 -5.453125l0 -3.296875l4.484375 0l0 3.03125q0 1.75 -0.984375 3.8125q-0.96875 2.046875 -2.578125 3.453125z" fill-rule="nonzero"/><path fill="#f3f3f3" d="m23.95013 45.230972l137.55905 0l0 -20.354332l40.708664 40.708664l-40.708664 40.708656l0 -20.354324l-137.55905 0z" fill-rule="evenodd"/><path fill="#f3f3f3" d="m221.74295 45.230972l137.55905 0l0 -20.354332l40.70865 40.708664l-40.70865 40.708656l0 -20.354324l-137.55905 0z" fill-rule="evenodd"/><path fill="#f3f3f3" d="m419.53577 45.230972l137.55908 0l0 -20.354332l40.70862 40.708664l-40.70862 40.708656l0 -20.354324l-137.55908 0z" fill-rule="evenodd"/><path fill="#ffd642" d="m619.1174 82.6861l0 0c91.353516 4.272438 163.05347 79.88138 162.47504 171.33295l-33.92047 -0.21456909c0.46331787 -73.25087 -56.96692 -133.81213 -130.13928 -137.23425z" fill-rule="evenodd"/><path fill="#ffd642" d="m799.4068 246.25064l-35.212585 39.984253l-35.212585 -40.015747z" fill-rule="evenodd"/><path fill="#ffae19" d="m759.3435 339.13266l0 0c-41.98633 81.24005 -140.60577 114.86447 -223.47571 76.194336l14.343262 -30.737457c66.37714 30.97403 145.36932 4.0415344 178.99957 -61.03012z" fill-rule="evenodd"/><path fill="#ffae19" d="m535.4973 434.75693l-21.650513 -48.67862l51.053467 -15.310669z" fill-rule="evenodd"/><path fill="#ff793d" d="m456.94293 352.6907l0 0c-45.706543 -79.2164 -20.747833 -180.38673 56.557434 -229.25613l18.12622 28.673447c-61.919952 39.143417 -81.91138 120.17885 -45.30136 183.62956z" fill-rule="evenodd"/><path fill="#ff793d" d="m497.3457 112.6292l52.666992 8.065987l-14.685059 51.24199z" fill-rule="evenodd"/><path fill="#000000" fill-opacity="0.0" d="m704.40155 117.29265l203.4961 0l0 54.771652l-203.4961 0z" fill-rule="evenodd"/><path fill="#ffd642" d="m793.12616 136.83118l-6.96875 0l0 18.953125l-4.6875 0l0 -18.953125l-6.875 0l0 -3.796875l18.53125 0l0 3.796875zm10.15625 19.265625q-3.71875 0 -6.0625 -2.28125q-2.328125 -2.28125 -2.328125 -6.078125l0 -0.4375q0 -2.546875 0.984375 -4.546875q0.984375 -2.015625 2.78125 -3.09375q1.8125 -1.09375 4.125 -1.09375q3.46875 0 5.453125 2.1875q2.0 2.1875 2.0 6.203125l0 1.84375l-10.765625 0q0.21875 1.65625 1.3125 2.65625q1.109375 1.0 2.796875 1.0q2.609375 0 4.078125 -1.890625l2.21875 2.484375q-1.015625 1.4375 -2.75 2.25q-1.734375 0.796875 -3.84375 0.796875zm-0.515625 -13.875q-1.34375 0 -2.1875 0.90625q-0.828125 0.90625 -1.0625 2.59375l6.28125 0l0 -0.359375q-0.03125 -1.5 -0.8125 -2.3125q-0.78125 -0.828125 -2.21875 -0.828125zm19.1875 8.890625q0 -0.828125 -0.828125 -1.296875q-0.8125 -0.484375 -2.625 -0.859375q-6.03125 -1.265625 -6.03125 -5.125q0 -2.25 1.859375 -3.75q1.875 -1.515625 4.890625 -1.515625q3.21875 0 5.140625 1.515625q1.9375 1.515625 1.9375 3.9375l-4.515625 0q0 -0.96875 -0.625 -1.59375q-0.625 -0.640625 -1.953125 -0.640625q-1.140625 0 -1.765625 0.515625q-0.625 0.515625 -0.625 1.3125q0 0.75 0.703125 1.21875q0.71875 0.453125 2.40625 0.796875q1.6875 0.328125 2.84375 0.75q3.578125 1.3125 3.578125 4.546875q0 2.3125 -1.984375 3.75q-1.984375 1.421875 -5.125 1.421875q-2.125 0 -3.78125 -0.75q-1.640625 -0.765625 -2.578125 -2.078125q-0.9375 -1.328125 -0.9375 -2.859375l4.28125 0q0.0625 1.203125 0.890625 1.84375q0.828125 0.640625 2.21875 0.640625q1.296875 0 1.953125 -0.484375q0.671875 -0.5 0.671875 -1.296875zm12.703125 -16.390625l0 4.15625l2.890625 0l0 3.3125l-2.890625 0l0 8.4375q0 0.9375 0.359375 1.34375q0.359375 0.40625 1.375 0.40625q0.75 0 1.328125 -0.109375l0 3.421875q-1.328125 0.40625 -2.734375 0.40625q-4.75 0 -4.84375 -4.796875l0 -9.109375l-2.46875 0l0 -3.3125l2.46875 0l0 -4.15625l4.515625 0z" fill-rule="nonzero"/><path fill="#000000" fill-opacity="0.0" d="m301.27036 124.23753l203.49606 0l0 54.771652l-203.49606 0z" fill-rule="evenodd"/><path fill="#ff793d" d="m367.02618 154.40106l-3.734375 0l0 8.328125l-4.6875 0l0 -22.75l8.453125 0q4.03125 0 6.21875 1.796875q2.1875 1.796875 2.1875 5.078125q0 2.328125 -1.015625 3.890625q-1.0 1.546875 -3.046875 2.46875l4.921875 9.296875l0 0.21875l-5.03125 0l-4.265625 -8.328125zm-3.734375 -3.796875l3.78125 0q1.765625 0 2.734375 -0.890625q0.96875 -0.90625 0.96875 -2.484375q0 -1.609375 -0.921875 -2.53125q-0.90625 -0.921875 -2.796875 -0.921875l-3.765625 0l0 6.828125zm23.21875 12.4375q-3.71875 0 -6.0625 -2.28125q-2.328125 -2.28125 -2.328125 -6.078125l0 -0.4375q0 -2.546875 0.984375 -4.546875q0.984375 -2.015625 2.78125 -3.09375q1.8125 -1.09375 4.125 -1.09375q3.46875 0 5.453125 2.1875q2.0 2.1875 2.0 6.203125l0 1.84375l-10.765625 0q0.21875 1.65625 1.3125 2.65625q1.109375 1.0 2.796875 1.0q2.609375 0 4.078125 -1.890625l2.21875 2.484375q-1.015625 1.4375 -2.75 2.25q-1.734375 0.796875 -3.84375 0.796875zm-0.515625 -13.875q-1.34375 0 -2.1875 0.90625q-0.828125 0.90625 -1.0625 2.59375l6.28125 0l0 -0.359375q-0.03125 -1.5 -0.8125 -2.3125q-0.78125 -0.828125 -2.21875 -0.828125zm11.265625 13.5625l0 -13.59375l-2.515625 0l0 -3.3125l2.515625 0l0 -1.4375q0 -2.84375 1.625 -4.40625q1.640625 -1.578125 4.578125 -1.578125q0.9375 0 2.296875 0.3125l-0.046875 3.5q-0.5625 -0.140625 -1.375 -0.140625q-2.546875 0 -2.546875 2.390625l0 1.359375l3.359375 0l0 3.3125l-3.359375 0l0 13.59375l-4.53125 0zm15.0 0l-4.53125 0l0 -16.90625l4.53125 0l0 16.90625zm-4.796875 -21.28125q0 -1.015625 0.671875 -1.671875q0.6875 -0.65625 1.859375 -0.65625q1.15625 0 1.84375 0.65625q0.6875 0.65625 0.6875 1.671875q0 1.03125 -0.703125 1.6875q-0.6875 0.65625 -1.828125 0.65625q-1.140625 0 -1.84375 -0.65625q-0.6875 -0.65625 -0.6875 -1.6875zm12.671875 4.375l0.140625 1.953125q1.8125 -2.265625 4.859375 -2.265625q2.6875 0 4.0 1.578125q1.3125 1.578125 1.34375 4.71875l0 10.921875l-4.515625 0l0 -10.8125q0 -1.4375 -0.625 -2.078125q-0.625 -0.65625 -2.078125 -0.65625q-1.90625 0 -2.859375 1.625l0 11.921875l-4.515625 0l0 -16.90625l4.25 0zm21.546875 17.21875q-3.71875 0 -6.0625 -2.28125q-2.328125 -2.28125 -2.328125 -6.078125l0 -0.4375q0 -2.546875 0.984375 -4.546875q0.984375 -2.015625 2.78125 -3.09375q1.8125 -1.09375 4.125 -1.09375q3.46875 0 5.453125 2.1875q2.0 2.1875 2.0 6.203125l0 1.84375l-10.765625 0q0.21875 1.65625 1.3125 2.65625q1.109375 1.0 2.796875 1.0q2.609375 0 4.078125 -1.890625l2.21875 2.484375q-1.015625 1.4375 -2.75 2.25q-1.734375 0.796875 -3.84375 0.796875zm-0.515625 -13.875q-1.34375 0 -2.1875 0.90625q-0.828125 0.90625 -1.0625 2.59375l6.28125 0l0 -0.359375q-0.03125 -1.5 -0.8125 -2.3125q-0.78125 -0.828125 -2.21875 -0.828125z" fill-rule="nonzero"/><path fill="#000000" fill-opacity="0.0" d="m645.0971 409.80447l203.4961 0l0 54.771637l-203.4961 0z" fill-rule="evenodd"/><path fill="#ffae19" d="m704.267 443.6086l-8.21875 0l-1.5625 4.6875l-4.984375 0l8.46875 -22.75l4.34375 0l8.515625 22.75l-4.984375 0l-1.578125 -4.6875zm-6.953125 -3.796875l5.6875 0l-2.859375 -8.515625l-2.828125 8.515625zm19.5 -8.421875l0.140625 1.953125q1.8125 -2.265625 4.859375 -2.265625q2.6875 0 4.0 1.578125q1.3125 1.578125 1.34375 4.71875l0 10.921875l-4.515625 0l0 -10.8125q0 -1.4375 -0.625 -2.078125q-0.625 -0.65625 -2.078125 -0.65625q-1.90625 0 -2.859375 1.625l0 11.921875l-4.515625 0l0 -16.90625l4.25 0zm23.5625 16.90625q-0.3125 -0.609375 -0.453125 -1.515625q-1.640625 1.828125 -4.265625 1.828125q-2.484375 0 -4.125 -1.4375q-1.625 -1.4375 -1.625 -3.625q0 -2.6875 1.984375 -4.125q2.0 -1.4375 5.765625 -1.453125l2.078125 0l0 -0.96875q0 -1.171875 -0.609375 -1.875q-0.59375 -0.703125 -1.890625 -0.703125q-1.140625 0 -1.796875 0.546875q-0.640625 0.546875 -0.640625 1.5l-4.515625 0q0 -1.46875 0.90625 -2.71875q0.90625 -1.25 2.5625 -1.953125q1.65625 -0.71875 3.71875 -0.71875q3.125 0 4.953125 1.578125q1.84375 1.5625 1.84375 4.40625l0 7.328125q0.015625 2.40625 0.671875 3.640625l0 0.265625l-4.5625 0zm-3.734375 -3.140625q1.0 0 1.84375 -0.4375q0.84375 -0.453125 1.25 -1.203125l0 -2.90625l-1.6875 0q-3.390625 0 -3.609375 2.34375l-0.015625 0.265625q0 0.84375 0.59375 1.390625q0.59375 0.546875 1.625 0.546875zm15.859375 3.140625l-4.53125 0l0 -24.0l4.53125 0l0 24.0zm10.03125 -6.390625l3.125 -10.515625l4.84375 0l-6.796875 19.53125l-0.375 0.890625q-1.515625 3.3125 -5.0 3.3125q-0.984375 0 -2.0 -0.296875l0 -3.421875l0.6875 0.015625q1.28125 0 1.90625 -0.390625q0.640625 -0.390625 1.0 -1.296875l0.53125 -1.390625l-5.921875 -16.953125l4.859375 0l3.140625 10.515625zm18.90625 1.71875q0 -0.828125 -0.828125 -1.296875q-0.8125 -0.484375 -2.625 -0.859375q-6.03125 -1.265625 -6.03125 -5.125q0 -2.25 1.859375 -3.75q1.875 -1.515625 4.890625 -1.515625q3.21875 0 5.140625 1.515625q1.9375 1.515625 1.9375 3.9375l-4.515625 0q0 -0.96875 -0.625 -1.59375q-0.625 -0.640625 -1.953125 -0.640625q-1.140625 0 -1.765625 0.515625q-0.625 0.515625 -0.625 1.3125q0 0.75 0.703125 1.21875q0.71875 0.453125 2.40625 0.796875q1.6875 0.328125 2.84375 0.75q3.578125 1.3125 3.578125 4.546875q0 2.3125 -1.984375 3.75q-1.984375 1.421875 -5.125 1.421875q-2.125 0 -3.78125 -0.75q-1.640625 -0.765625 -2.578125 -2.078125q-0.9375 -1.328125 -0.9375 -2.859375l4.28125 0q0.0625 1.203125 0.890625 1.84375q0.828125 0.640625 2.21875 0.640625q1.296875 0 1.953125 -0.484375q0.671875 -0.5 0.671875 -1.296875zm15.078125 4.984375q-3.71875 0 -6.0625 -2.28125q-2.328125 -2.28125 -2.328125 -6.078125l0 -0.4375q0 -2.546875 0.984375 -4.546875q0.984375 -2.015625 2.78125 -3.09375q1.8125 -1.09375 4.125 -1.09375q3.46875 0 5.453125 2.1875q2.0 2.1875 2.0 6.203125l0 1.84375l-10.765625 0q0.21875 1.65625 1.3125 2.65625q1.109375 1.0 2.796875 1.0q2.609375 0 4.078125 -1.890625l2.21875 2.484375q-1.015625 1.4375 -2.75 2.25q-1.734375 0.796875 -3.84375 0.796875zm-0.515625 -13.875q-1.34375 0 -2.1875 0.90625q-0.828125 0.90625 -1.0625 2.59375l6.28125 0l0 -0.359375q-0.03125 -1.5 -0.8125 -2.3125q-0.78125 -0.828125 -2.21875 -0.828125z" fill-rule="nonzero"/><path fill="#000000" fill-opacity="0.0" d="m23.95014 38.206036l178.26772 0l0 54.771656l-178.26772 0z" fill-rule="evenodd"/><path fill="#212148" d="m107.068375 53.94769l-2.625 15.390629q-0.53125 3.546875 -3.0625 5.65625q-2.53125 2.09375 -6.109375 2.03125q-2.234375 -0.046875 -3.890625 -1.0q-1.640625 -0.96875 -2.421875 -2.703125q-0.78125 -1.75 -0.515625 -3.96875l2.625 -15.406254l2.890625 0l-2.609375 15.421879q-0.265625 2.390625 0.8125 3.765625q1.078125 1.359375 3.265625 1.421875q2.375 0.09375 4.0 -1.28125q1.640625 -1.390625 2.0625 -3.890625l2.625 -15.437504l2.953125 0zm10.734375 18.171879q0.234375 -1.75 -1.921875 -2.46875l-2.9375 -0.859375q-3.71875 -1.28125 -3.59375 -4.25q0.109375 -2.2343788 2.03125 -3.6562538q1.9375 -1.4375 4.546875 -1.40625q2.5625 0.03125 4.15625 1.5q1.609375 1.453125 1.546875 3.7968788l-2.8125 -0.015625q0.03125 -1.2656288 -0.796875 -2.0625038q-0.828125 -0.796875 -2.203125 -0.828125q-1.46875 -0.03125 -2.53125 0.71875q-0.984375 0.703125 -1.140625 1.8437538q-0.203125 1.46875 1.796875 2.140625l1.421875 0.390625q2.90625 0.75 4.125 1.953125q1.21875 1.203125 1.125 2.984375q-0.09375 1.578125 -1.03125 2.75q-0.9375 1.171875 -2.5 1.796875q-1.5625 0.609375 -3.328125 0.5625q-2.6875 -0.03125 -4.4375 -1.5625q-1.75 -1.546875 -1.6875 -3.96875l2.828125 0.015625q0 1.421875 0.90625 2.28125q0.90625 0.859375 2.484375 0.859375q1.546875 0.03125 2.671875 -0.640625q1.125 -0.6875 1.28125 -1.875zm13.0 4.890625q-3.15625 -0.0625 -4.9375 -2.328125q-1.78125 -2.265625 -1.5 -5.796875l0.078125 -0.671875q0.265625 -2.515625 1.484375 -4.593754q1.234375 -2.078125 3.0 -3.125q1.765625 -1.0625 3.8125 -1.015625q2.609375 0.0625 4.09375 1.734375q1.484375 1.671875 1.625 4.531254q0.046875 1.015625 -0.0625 2.03125l-0.171875 1.296875l-11.046875 0q-0.28125 2.296875 0.75 3.90625q1.046875 1.609375 3.109375 1.671875q2.5 0.0625 4.625 -2.25l1.625 1.375q-1.0625 1.53125 -2.75 2.40625q-1.671875 0.859375 -3.734375 0.828125zm1.796875 -15.171879q-1.75 -0.046875 -3.0625 1.1875q-1.296875 1.2343788 -2.0625 3.6718788l8.21875 0.015625l0.0625 -0.25q0.25 -1.96875 -0.640625 -3.2656288q-0.875 -1.3125 -2.515625 -1.359375z" fill-rule="nonzero"/><path fill="#000000" fill-opacity="0.0" d="m221.74333 38.206036l178.26772 0l0 54.771656l-178.26772 0z" fill-rule="evenodd"/><path fill="#212148" d="m271.33813 53.94769l3.984375 18.531254l10.4375 -18.531254l3.859375 0l-3.953125 22.750004l-2.921875 0l1.5625 -9.0l1.859375 -9.156254l-10.3125 18.156254l-2.25 0l-4.0625 -18.515629l-1.40625 9.812504l-1.515625 8.703125l-2.9375 0l3.953125 -22.750004l3.703125 0zm28.546875 5.53125q2.125 0.03125 3.640625 1.15625q1.515625 1.125 2.234375 3.109375q0.734375 1.9687538 0.5 4.312504l-0.03125 0.34375q-0.296875 2.46875 -1.46875 4.46875q-1.171875 1.984375 -3.03125 3.09375q-1.859375 1.109375 -4.078125 1.046875q-2.109375 -0.03125 -3.640625 -1.15625q-1.515625 -1.125 -2.21875 -3.0625q-0.703125 -1.9375 -0.5 -4.265625q0.234375 -2.625 1.421875 -4.718754q1.1875 -2.09375 3.046875 -3.234375q1.875 -1.15625 4.125 -1.09375zm-5.75 9.062504q-0.109375 0.984375 0 2.046875q0.15625 1.84375 1.09375 2.9375q0.953125 1.09375 2.53125 1.140625q1.40625 0.046875 2.59375 -0.6875q1.1875 -0.75 2.0 -2.25q0.8125 -1.5 1.046875 -3.328125q0.125 -1.4375 0.046875 -2.421875q-0.1875 -1.890625 -1.140625 -2.9843788q-0.953125 -1.09375 -2.53125 -1.15625q-2.1875 -0.046875 -3.71875 1.71875q-1.53125 1.7656288 -1.890625 4.625004l-0.03125 0.359375zm15.03125 -0.328125q0.3125 -2.578125 1.421875 -4.656254q1.109375 -2.078125 2.734375 -3.109375q1.625 -1.03125 3.578125 -0.984375q2.828125 0.0625 4.34375 2.0625l1.625 -8.828125l2.828125 0l-4.15625 24.000004l-2.578125 0l0.296875 -1.8125q-2.0 2.1875 -4.9375 2.125q-2.34375 -0.0625 -3.734375 -1.828125q-1.390625 -1.78125 -1.5 -4.765625q-0.046875 -0.921875 0.078125 -2.203125zm2.71875 1.625q-0.046875 2.234375 0.796875 3.46875q0.84375 1.234375 2.46875 1.265625q2.453125 0.109375 4.359375 -2.46875l1.34375 -7.8125q-0.9375 -2.3125038 -3.40625 -2.3750038q-1.671875 -0.046875 -2.953125 1.015625q-1.265625 1.046875 -1.9375 2.9531288q-0.65625 1.890625 -0.671875 3.953125zm17.1875 6.859375l-2.8125 0l2.9375 -16.906254l2.8125 0l-2.9375 16.906254zm2.328125 -23.078129q0.71875 -0.03125 1.1875 0.4375q0.484375 0.453125 0.484375 1.203125q-0.015625 0.734375 -0.484375 1.203125q-0.453125 0.46875 -1.1875 0.5q-0.734375 0.03125 -1.203125 -0.421875q-0.46875 -0.453125 -0.453125 -1.1875q0.015625 -0.734375 0.46875 -1.21875q0.453125 -0.484375 1.1875 -0.515625zm3.671875 23.078129l2.5625 -14.671879l-2.609375 0l0.390625 -2.234375l2.59375 0l0.28125 -2.0q0.40625 -2.546875 1.96875 -3.984375q1.640625 -1.5 4.1875 -1.46875q0.796875 0 2.015625 0.265625l-0.34375 2.359375q-0.75 -0.15625 -1.515625 -0.1875q-1.46875 0 -2.390625 0.921875q-0.90625 0.90625 -1.125 2.421875l-0.25 1.671875l3.5 0l-0.390625 2.234375l-3.5 0l-2.546875 14.671879l-2.828125 0zm15.6249695 -4.265625l6.015625 -12.640629l3.125 0l-10.03125 19.718754q-2.0937195 4.109375 -5.3749695 4.0625q-0.578125 -0.015625 -1.703125 -0.28125l0.25 -2.34375l0.734375 0.078125q1.34375 0.0625 2.3125 -0.609375q0.984375 -0.65625 1.734375 -2.140625l1.015625 -1.9375l-2.921875 -16.546879l2.953125 0l1.8905945 12.640629z" fill-rule="nonzero"/><path fill="#000000" fill-opacity="0.0" d="m419.53653 38.206036l178.26773 0l0 54.771656l-178.26773 0z" fill-rule="evenodd"/><path fill="#212148" d="m481.16257 69.44769q-0.65625 3.53125 -3.203125 5.59375q-2.53125 2.0625 -6.078125 1.96875q-2.109375 -0.046875 -3.6875 -1.03125q-1.578125 -1.0 -2.453125 -2.859375q-0.875 -1.875 -0.96875 -4.140625q-0.0625 -1.28125 0.109375 -2.5l0.265625 -1.875q0.734375 -5.125004 3.59375 -8.078129q2.875 -2.96875 6.984375 -2.890625q3.203125 0.0625 5.078125 2.078125q1.875 2.0 1.984375 5.5625l-2.921875 0q-0.203125 -4.78125 -3.75 -5.15625l-0.515625 -0.03125q-2.953125 -0.078125 -4.9375 2.203125q-1.96875 2.265625 -2.546875 6.203129l-0.34375 2.359375l-0.09375 1.375q-0.09375 2.875 1.015625 4.578125q1.125 1.6875 3.328125 1.75q2.375 0.078125 3.921875 -1.140625q1.5625 -1.21875 2.375 -3.921875l2.84375 -0.046875zm13.09375 -7.078129l-1.328125 -0.140625q-2.71875 0 -4.28125 2.4531288l-2.078125 12.015625l-2.828125 0l2.9375 -16.906254l2.734375 -0.015625l-0.421875 1.96875q1.796875 -2.359375 4.234375 -2.296875q0.515625 0 1.34375 0.234375l-0.3125 2.6875zm7.453125 14.640629q-3.15625 -0.0625 -4.9375 -2.328125q-1.78125 -2.265625 -1.5 -5.796875l0.078125 -0.671875q0.265625 -2.515625 1.484375 -4.593754q1.234375 -2.078125 3.0 -3.125q1.765625 -1.0625 3.8125 -1.015625q2.609375 0.0625 4.09375 1.734375q1.484375 1.671875 1.625 4.531254q0.046875 1.015625 -0.0625 2.03125l-0.171875 1.296875l-11.046875 0q-0.28125 2.296875 0.75 3.90625q1.046875 1.609375 3.109375 1.671875q2.5 0.0625 4.625 -2.25l1.625 1.375q-1.0625 1.53125 -2.75 2.40625q-1.671875 0.859375 -3.734375 0.828125zm1.796875 -15.171879q-1.75 -0.046875 -3.0625 1.1875q-1.296875 1.2343788 -2.0625 3.6718788l8.21875 0.015625l0.0625 -0.25q0.25 -1.96875 -0.640625 -3.2656288q-0.875 -1.3125 -2.515625 -1.359375zm17.828094 14.859379q-0.109375 -0.453125 -0.109375 -0.890625l0.046875 -0.890625q-2.328125 2.15625 -4.9375 2.09375q-2.234375 -0.03125 -3.640625 -1.40625q-1.3905945 -1.390625 -1.2655945 -3.46875q0.15625 -2.6875 2.3437195 -4.1875q2.203125 -1.515625 5.78125 -1.515625l2.953125 0.015625l0.1875 -1.34375q0.15625 -1.5156288 -0.59375 -2.3906288q-0.734375 -0.890625 -2.21875 -0.921875q-1.453125 -0.03125 -2.578125 0.71875q-1.109375 0.734375 -1.359375 1.9531288l-2.84375 0.015625q0.140625 -1.4843788 1.15625 -2.6250038q1.015625 -1.15625 2.609375 -1.78125q1.59375 -0.640625 3.296875 -0.609375q2.640625 0.0625 4.109375 1.609375q1.46875 1.53125 1.234375 4.078129l-1.375 8.375l-0.078125 1.203125q-0.03125 0.859375 0.1875 1.703125l-0.03125 0.265625l-2.875 0zm-4.4375 -2.1875q1.359375 0.03125 2.5625 -0.640625q1.21875 -0.6875 2.09375 -1.890625l0.609375 -3.484375l-2.140625 -0.015625q-2.671875 0 -4.09375 0.84375q-1.421875 0.84375 -1.609375 2.390625q-0.140625 1.1875 0.546875 1.984375q0.703125 0.78125 2.03125 0.8125zm18.609375 -18.812504l-0.71875 4.09375l3.078125 0l-0.390625 2.234375l-3.0625 0l-1.765625 10.515629q-0.046875 0.40625 -0.015625 0.75q0.109375 1.21875 1.328125 1.21875q0.515625 0 1.375 -0.15625l-0.21875 2.359375q-1.015625 0.28125 -2.0625 0.28125q-1.6875 -0.03125 -2.53125 -1.234375q-0.84375 -1.21875 -0.65625 -3.265625l1.71875 -10.468754l-2.984375 0l0.390625 -2.234375l2.984375 0l0.71875 -4.09375l2.8125 0zm10.140625 21.312504q-3.15625 -0.0625 -4.9375 -2.328125q-1.78125 -2.265625 -1.5 -5.796875l0.078125 -0.671875q0.265625 -2.515625 1.484375 -4.593754q1.234375 -2.078125 3.0 -3.125q1.765625 -1.0625 3.8125 -1.015625q2.609375 0.0625 4.09375 1.734375q1.484375 1.671875 1.625 4.531254q0.046875 1.015625 -0.0625 2.03125l-0.171875 1.296875l-11.046875 0q-0.28125 2.296875 0.75 3.90625q1.046875 1.609375 3.109375 1.671875q2.5 0.0625 4.625 -2.25l1.625 1.375q-1.0625 1.53125 -2.75 2.40625q-1.671875 0.859375 -3.734375 0.828125zm1.796875 -15.171879q-1.75 -0.046875 -3.0625 1.1875q-1.296875 1.2343788 -2.0625 3.6718788l8.21875 0.015625l0.0625 -0.25q0.25 -1.96875 -0.640625 -3.2656288q-0.875 -1.3125 -2.515625 -1.359375z" fill-rule="nonzero"/></g></svg>